<svg
  xmlns="http://www.w3.org/2000/svg"
  viewBox="0 0 800 500"
  preserveAspectRatio="xMidYMid slice"
  role="img"
  aria-label="warehouse forklift"
>
  <defs>
    <linearGradient id="warehouseBg" x1="0" y1="0" x2="0" y2="1">
      <stop offset="0%" stop-color="#4a4639" />
      <stop offset="55%" stop-color="#8a7052" />
      <stop offset="100%" stop-color="#6a4e33" />
    </linearGradient>
    <linearGradient id="floor" x1="0" y1="0" x2="0" y2="1">
      <stop offset="0%" stop-color="#4b4236" />
      <stop offset="100%" stop-color="#2a231a" />
    </linearGradient>
    <linearGradient id="boxLight" x1="0" y1="0" x2="0" y2="1">
      <stop offset="0%" stop-color="#d9b989" />
      <stop offset="100%" stop-color="#a3805a" />
    </linearGradient>
    <linearGradient id="boxDark" x1="0" y1="0" x2="0" y2="1">
      <stop offset="0%" stop-color="#b5925f" />
      <stop offset="100%" stop-color="#7b5a38" />
    </linearGradient>
    <linearGradient id="forkliftBody" x1="0" y1="0" x2="0" y2="1">
      <stop offset="0%" stop-color="#ff9426" />
      <stop offset="100%" stop-color="#d46a08" />
    </linearGradient>
    <linearGradient id="cabinRoof" x1="0" y1="0" x2="0" y2="1">
      <stop offset="0%" stop-color="#ffce7a" />
      <stop offset="100%" stop-color="#d18a2b" />
    </linearGradient>
    <radialGradient id="vignette" cx="50%" cy="50%" r="75%">
      <stop offset="60%" stop-color="#000" stop-opacity="0" />
      <stop offset="100%" stop-color="#000" stop-opacity="0.55" />
    </radialGradient>
  </defs>

  <rect width="800" height="500" fill="url(#warehouseBg)" />

  <g opacity="0.45" stroke="#2a2317" stroke-width="2" fill="none">
    <path d="M0 90 L800 60" />
    <path d="M0 110 L800 80" />
    <path d="M0 130 L800 100" />
    <path d="M100 0 L100 140" />
    <path d="M250 0 L250 140" />
    <path d="M400 0 L400 140" />
    <path d="M550 0 L550 140" />
    <path d="M700 0 L700 140" />
  </g>

  <g opacity="0.8">
    <rect x="0" y="140" width="800" height="6" fill="#2a2118" />
    <rect x="0" y="200" width="800" height="6" fill="#2a2118" />
    <rect x="0" y="260" width="800" height="6" fill="#2a2118" />
    <g fill="#2a2118">
      <rect x="40" y="140" width="8" height="130" />
      <rect x="200" y="140" width="8" height="130" />
      <rect x="360" y="140" width="8" height="130" />
      <rect x="520" y="140" width="8" height="130" />
      <rect x="680" y="140" width="8" height="130" />
      <rect x="760" y="140" width="8" height="130" />
    </g>
  </g>

  <g>
    <rect x="50" y="150" width="90" height="50" fill="url(#boxLight)" stroke="#5c4529" stroke-width="1.5" />
    <rect x="50" y="205" width="90" height="50" fill="url(#boxDark)" stroke="#5c4529" stroke-width="1.5" />
    <rect x="145" y="150" width="90" height="50" fill="url(#boxDark)" stroke="#5c4529" stroke-width="1.5" />
    <rect x="145" y="205" width="90" height="50" fill="url(#boxLight)" stroke="#5c4529" stroke-width="1.5" />
  </g>

  <g>
    <rect x="560" y="140" width="90" height="55" fill="url(#boxLight)" stroke="#5c4529" stroke-width="1.5" />
    <rect x="560" y="200" width="90" height="55" fill="url(#boxDark)" stroke="#5c4529" stroke-width="1.5" />
    <rect x="655" y="140" width="90" height="55" fill="url(#boxDark)" stroke="#5c4529" stroke-width="1.5" />
    <rect x="655" y="200" width="90" height="55" fill="url(#boxLight)" stroke="#5c4529" stroke-width="1.5" />
  </g>

  <rect x="0" y="320" width="800" height="180" fill="url(#floor)" />

  <ellipse cx="330" cy="440" rx="170" ry="16" fill="#0d0a06" opacity="0.55" />

  <g>
    <path
      d="M210 340 L210 405 Q210 420 225 420 L430 420 Q445 420 445 405 L445 350 Z"
      fill="url(#forkliftBody)"
      stroke="#6c3400"
      stroke-width="2"
    />
    <path d="M225 350 Q225 300 270 300 L330 300 L330 350 Z" fill="url(#forkliftBody)" stroke="#6c3400" stroke-width="2" />
    <rect x="232" y="232" width="108" height="14" rx="2" fill="url(#cabinRoof)" stroke="#5a3500" stroke-width="2" />
    <rect x="234" y="246" width="6" height="60" fill="#c37515" />
    <rect x="332" y="246" width="6" height="60" fill="#c37515" />
    <path d="M242 250 L336 250 L330 298 L250 298 Z" fill="#2d3d5c" opacity="0.5" />
    <g>
      <path d="M262 260 Q280 250 298 260 L300 310 L260 310 Z" fill="#ff9326" stroke="#6c3400" stroke-width="1.5" />
      <rect x="262" y="278" width="36" height="4" fill="#fff8d1" opacity="0.9" />
      <rect x="262" y="292" width="36" height="4" fill="#fff8d1" opacity="0.9" />
      <circle cx="280" cy="252" r="12" fill="#d9a67b" stroke="#6c3400" stroke-width="1" />
      <path d="M268 248 Q280 236 292 248 L292 252 Q280 244 268 252 Z" fill="#2a1d14" />
    </g>

    <rect x="350" y="365" width="65" height="30" fill="#1a1a1a" stroke="#000" stroke-width="1" />
    <text x="382" y="385" fill="#e7e2d9" font-size="12" font-family="Arial,Helvetica,sans-serif" text-anchor="middle" font-weight="bold">SANY</text>

    <rect x="445" y="250" width="8" height="180" fill="#2a2118" />
    <rect x="478" y="250" width="8" height="180" fill="#2a2118" />
    <rect x="443" y="420" width="90" height="8" fill="#2a2118" />
    <rect x="443" y="428" width="90" height="4" fill="#1a140d" />
    <line x1="449" y1="252" x2="449" y2="420" stroke="#6b5a3a" stroke-width="1" stroke-dasharray="4 2" />
    <line x1="482" y1="252" x2="482" y2="420" stroke="#6b5a3a" stroke-width="1" stroke-dasharray="4 2" />

    <g>
      <circle cx="250" cy="430" r="28" fill="#1a1a1a" stroke="#000" stroke-width="2" />
      <circle cx="250" cy="430" r="12" fill="#3a3a3a" />
      <circle cx="405" cy="430" r="28" fill="#1a1a1a" stroke="#000" stroke-width="2" />
      <circle cx="405" cy="430" r="12" fill="#3a3a3a" />
    </g>

    <ellipse cx="448" cy="370" rx="4" ry="6" fill="#fff1b8" opacity="0.85" />
  </g>

  <rect x="0" y="320" width="800" height="4" fill="#7a5a37" opacity="0.6" />

  <rect width="800" height="500" fill="url(#vignette)" />
</svg>
